<svg xmlns="http://www.w3.org/2000/svg" viewBox="0 0 50 50">
  <defs>
    <style>
      .cls-1 {
        fill: #babec3;
      }

      .cls-2 {
        fill: #fff;
      }

      .cls-3 {
        fill: none;
      }
    </style>
  </defs>
  <g id="Group_37" data-name="Group 37" transform="translate(-870 -196)">
    <g id="Group_6088" data-name="Group 6088" transform="translate(-5 -5)">
      <g id="Reply" transform="translate(710 90)">
        <circle id="Oval" class="cls-1" cx="18" cy="18" r="18" transform="translate(172 118)"/>
      </g>
      <g id="photo-camera_3_" data-name="photo-camera (3)" transform="translate(892 213.5)">
        <path id="Path_203" data-name="Path 203" class="cls-2" d="M21.233,20.5a3.233,3.233,0,1,0,3.233,3.233A3.236,3.236,0,0,0,21.233,20.5Z" transform="translate(-13.151 -10.959)"/>
        <path id="Path_204" data-name="Path 204" class="cls-2" d="M14.87,8.194h-2.3L11.5,5.5H4.667L3.589,8.194H3.233V6.847H1.616V8.194H1.293A1.294,1.294,0,0,0,0,9.487V17.4a1.3,1.3,0,0,0,1.3,1.3H14.861a1.3,1.3,0,0,0,1.3-1.3V9.487A1.294,1.294,0,0,0,14.87,8.194Zm-12.177,0H2.155V7.386h.539Zm5.388,9.429a4.849,4.849,0,1,1,4.849-4.849A4.855,4.855,0,0,1,8.082,17.622Zm5.927-6.2a1.078,1.078,0,1,1,1.078-1.078A1.079,1.079,0,0,1,14.008,11.427Z"/>
      </g>
    </g>
    <rect id="Rectangle_753" data-name="Rectangle 753" class="cls-3" width="50" height="50" transform="translate(870 196)"/>
  </g>
</svg>
