<svg xmlns="http://www.w3.org/2000/svg" viewBox="0 0 50 50">
  <defs>
    <style>
      .cls-1 {
        fill: #babec3;
      }

      .cls-2 {
        fill: none;
      }
    </style>
  </defs>
  <g id="Group_35" data-name="Group 35" transform="translate(-752 -196)">
    <g id="error_1_" data-name="error (1)" transform="translate(759 203)">
      <path id="Path_201" data-name="Path 201" class="cls-1" d="M30.734,5.266a18.009,18.009,0,1,0,0,25.468A18.029,18.029,0,0,0,30.734,5.266ZM25.1,25.1a1.385,1.385,0,0,1-1.959,0L18,19.959l-5.387,5.387a1.385,1.385,0,0,1-1.959-1.959L16.041,18,10.9,12.857A1.385,1.385,0,1,1,12.857,10.9L18,16.041l4.9-4.9A1.385,1.385,0,0,1,24.856,13.1l-4.9,4.9L25.1,23.143A1.385,1.385,0,0,1,25.1,25.1Z" transform="translate(0 0)"/>
    </g>
    <rect id="Rectangle_756" data-name="Rectangle 756" class="cls-2" width="50" height="50" transform="translate(752 196)"/>
  </g>
</svg>
