<svg xmlns="http://www.w3.org/2000/svg" viewBox="0 0 10.252 15.371">
  <defs>
    <style>
      .cls-1 {
        fill: #434f5b;
      }
    </style>
  </defs>
  <g id="Group_39" data-name="Group 39" transform="translate(2317 6233.086)">
    <path id="Subtraction_2" data-name="Subtraction 2" class="cls-1" d="M4.7,13.387h0A24.023,24.023,0,0,1,2.268,9.994C.393,6.989,0,5.456,0,4.7A4.7,4.7,0,0,1,8.023,1.376,4.669,4.669,0,0,1,9.4,4.7a6.527,6.527,0,0,1-.7,2.447,25.348,25.348,0,0,1-1.554,2.865A19,19,0,0,1,4.7,13.387ZM4.842,2.848A1.994,1.994,0,1,0,6.836,4.842,2,2,0,0,0,4.842,2.848Z" transform="translate(-2316.595 -6233.086)"/>
    <path id="Subtraction_3" data-name="Subtraction 3" class="cls-1" d="M5.126,4.208C2.3,4.208,0,3.264,0,2.1,0,1.544.53,1.017,1.493.619A9.828,9.828,0,0,1,5.1,0,7.029,7.029,0,0,0,2.493.455c-.7.291-1.079.677-1.079,1.088,0,.851,1.665,1.543,3.712,1.543s3.712-.692,3.712-1.543c0-.41-.383-.8-1.079-1.088A7.03,7.03,0,0,0,5.15,0,9.829,9.829,0,0,1,8.759.619c.963.4,1.493.924,1.493,1.485C10.252,3.264,7.953,4.208,5.126,4.208Z" transform="translate(-2317 -6221.924)"/>
  </g>
</svg>
