<svg xmlns="http://www.w3.org/2000/svg" viewBox="0 0 93.728 96.887">
  <defs>
    <style>
      .cls-1 {
        fill: #1d1d1d;
      }

      .cls-2 {
        fill: #c4151c;
      }
    </style>
  </defs>
  <g id="Group_10949" data-name="Group 10949" transform="translate(-113 -71.354)">
    <path id="Union_2" data-name="Union 2" class="cls-1" d="M43.444,67.606,31.48,46.883a24.031,24.031,0,1,1,8.5-4.865l11.951,20.7a4.651,4.651,0,0,1-1.7,6.354l-.422.244a4.652,4.652,0,0,1-6.356-1.7ZM14.688,7.844A18.7,18.7,0,1,0,24,5.343a18.7,18.7,0,0,0-9.314,2.5Z" transform="translate(135.141 101.729) rotate(-18)"/>
    <path id="Subtraction_12" data-name="Subtraction 12" class="cls-2" d="M18.522,83.588H8.149v-10H.378V59.139H5.927V48.026H17.04V46.173H5.927V16.539H53.343v.391c-.365-.014-.739-.021-1.111-.021a29.076,29.076,0,0,0-6.224.672A28.74,28.74,0,0,0,40.251,19.5H9.261V38.024H24.4A28.959,28.959,0,0,0,23.337,45.8a29.364,29.364,0,0,0,.15,2.964H20.744V51.36h3.127a28.791,28.791,0,0,0,.743,2.964h-3.87v2.593h4.808A28.905,28.905,0,0,0,51.12,74.676v8.911h-10v-10h-22.6v10ZM8.335,62.843a3.89,3.89,0,1,0,3.889,3.89A3.894,3.894,0,0,0,8.335,62.843ZM3.743,55.434H0V0H59.261V17.77a28.894,28.894,0,0,0-3.372-.632V14.122H3.743Z" transform="translate(113 71.354)"/>
  </g>
</svg>
