<svg id="Group_33" data-name="Group 33" xmlns="http://www.w3.org/2000/svg" viewBox="0 0 77.287 77.287">
  <defs>
    <style>
      .cls-1 {
        fill: #fff;
      }

      .cls-2 {
        fill: none;
      }
    </style>
  </defs>
  <g id="error_1_" data-name="error (1)" transform="translate(10.82 10.82)">
    <path id="Path_201" data-name="Path 201" class="cls-1" d="M47.507,8.14a27.837,27.837,0,1,0,0,39.367A27.868,27.868,0,0,0,47.507,8.14ZM38.8,38.8a2.141,2.141,0,0,1-3.028,0l-7.949-7.949L19.5,39.178a2.141,2.141,0,0,1-3.028-3.028L24.8,27.823l-7.949-7.949a2.141,2.141,0,0,1,3.028-3.028L27.823,24.8l7.57-7.57a2.141,2.141,0,0,1,3.028,3.028l-7.57,7.57L38.8,35.773A2.141,2.141,0,0,1,38.8,38.8Z" transform="translate(0 0)"/>
  </g>
  <rect id="Rectangle_756" data-name="Rectangle 756" class="cls-2" width="77.287" height="77.287" transform="translate(0 0)"/>
</svg>
