<svg xmlns="http://www.w3.org/2000/svg" viewBox="13314 925 15 15">
  <defs>
    <style>
      .cls-1 {
        fill: #9da1a6;
      }
    </style>
  </defs>
  <g id="Group_9650" data-name="Group 9650" transform="translate(12909 -3688)">
    <path id="Path_2802" data-name="Path 2802" class="cls-1" d="M14.228,5.833h-1.4a.539.539,0,0,1-.381-.92l.992-.992a.773.773,0,0,0,0-1.092L12.171,1.564a.791.791,0,0,0-1.093,0l-.992.992a.539.539,0,0,1-.92-.381V.772A.773.773,0,0,0,8.394,0H6.606a.773.773,0,0,0-.772.772v1.4a.539.539,0,0,1-.92.381l-.992-.992a.791.791,0,0,0-1.092,0L1.564,2.829a.773.773,0,0,0,0,1.092l.992.992a.539.539,0,0,1-.381.92H.772A.773.773,0,0,0,0,6.606V8.394a.773.773,0,0,0,.772.772h1.4a.539.539,0,0,1,.381.92l-.992.992a.773.773,0,0,0,0,1.093l1.265,1.265a.79.79,0,0,0,1.093,0l.992-.992a.539.539,0,0,1,.92.381v1.4A.773.773,0,0,0,6.606,15H8.394a.773.773,0,0,0,.772-.772v-1.4a.539.539,0,0,1,.92-.381l.992.992a.791.791,0,0,0,1.092,0l1.265-1.265a.773.773,0,0,0,0-1.093l-.992-.992a.539.539,0,0,1,.381-.92h1.4A.773.773,0,0,0,15,8.394V6.606A.773.773,0,0,0,14.228,5.833Zm.217,2.561a.217.217,0,0,1-.217.217h-1.4a1.094,1.094,0,0,0-.774,1.868l.992.992a.217.217,0,0,1,0,.307l-1.265,1.265a.217.217,0,0,1-.307,0l-.992-.992a1.094,1.094,0,0,0-1.868.774v1.4a.217.217,0,0,1-.217.217H6.606a.217.217,0,0,1-.217-.217v-1.4a1.077,1.077,0,0,0-.676-1.011,1.107,1.107,0,0,0-.426-.086,1.079,1.079,0,0,0-.767.323l-.992.992a.217.217,0,0,1-.307,0L1.957,11.778a.217.217,0,0,1,0-.307l.992-.992a1.094,1.094,0,0,0-.774-1.868H.772a.217.217,0,0,1-.217-.217V6.606a.217.217,0,0,1,.217-.217h1.4a1.094,1.094,0,0,0,.774-1.868l-.992-.992a.217.217,0,0,1,0-.307L3.222,1.957a.217.217,0,0,1,.307,0l.992.992a1.094,1.094,0,0,0,1.868-.774V.772A.217.217,0,0,1,6.606.556H8.394a.217.217,0,0,1,.217.217v1.4a1.094,1.094,0,0,0,1.868.774l.992-.992a.217.217,0,0,1,.307,0l1.265,1.265a.217.217,0,0,1,0,.307l-.992.992a1.094,1.094,0,0,0,.774,1.868h1.4a.217.217,0,0,1,.217.216Z" transform="translate(405 4613)"/>
    <path id="Path_2803" data-name="Path 2803" class="cls-1" d="M20.5,18A2.5,2.5,0,1,0,23,20.5,2.5,2.5,0,0,0,20.5,18Zm0,4.444A1.944,1.944,0,1,1,22.444,20.5,1.947,1.947,0,0,1,20.5,22.444Z" transform="translate(392 4600)"/>
  </g>
</svg>
