<svg xmlns="http://www.w3.org/2000/svg" viewBox="0 0 21.875 25">
  <defs>
    <style>
      .cls-1 {
        fill: #434f5b;
      }
    </style>
  </defs>
  <path id="trash-alt-solid" class="cls-1" d="M0,4.1V2.734A1.169,1.169,0,0,1,1.172,1.562H6.641L7.1.649A1.158,1.158,0,0,1,8.145,0h5.581a1.171,1.171,0,0,1,1.05.649l.459.913H20.7a1.169,1.169,0,0,1,1.172,1.172V4.1a.588.588,0,0,1-.586.586H.586A.588.588,0,0,1,0,4.1ZM20.312,6.836v15.82A2.344,2.344,0,0,1,17.969,25H3.906a2.344,2.344,0,0,1-2.344-2.344V6.836a.588.588,0,0,1,.586-.586H19.727A.588.588,0,0,1,20.312,6.836ZM7.031,10.156a.781.781,0,1,0-1.562,0V21.094a.781.781,0,0,0,1.563,0Zm4.687,0a.781.781,0,1,0-1.562,0V21.094a.781.781,0,0,0,1.563,0Zm4.687,0a.781.781,0,1,0-1.562,0V21.094a.781.781,0,1,0,1.562,0Z"/>
</svg>
